<svg version="1.2" xmlns="http://www.w3.org/2000/svg" viewBox="0 0 256 256" width="256" height="256">
	<title>logo-no-background-svg</title>
	<style>
		.s0 { fill: #e47d00 } 
	</style>
	<g id="Layer">
		<g id="Layer">
			<g id="tight-bounds">
				<g id="Layer">
					<g id="Layer">
						<g id="Layer">
							<g id="Layer">
								<g id="Layer">
									<g id="textblocktransform">
										<g id="textblock">
											<g id="Layer">
												<g id="Layer">
													<g id="Layer">
														<g id="Layer">
														</g>
													</g>
												</g>
											</g>
										</g>
									</g>
								</g>
							</g>
							<g id="Layer">
								<g id="Layer">
									<g id="Layer">
										<g id="icon-0">
											<g id="Layer">
												<path id="Layer" class="s0" d="m204 82.1l-97.6-68.3c-1.1-0.7-2.4-0.7-3.5 0l-97.6 68.3c-0.7 0.4-1.1 1.1-1.3 1.9-0.1 0.8 0.1 1.6 0.5 2.2l13.3 19c0.6 0.8 1.6 1.3 2.5 1.3 0.6 0 1.2-0.2 1.7-0.6l82.7-57.7 82.6 57.7c1.4 1 3.2 0.6 4.2-0.7l13.3-19c0.4-0.6 0.6-1.4 0.5-2.2-0.2-0.8-0.6-1.5-1.3-1.9z"/>
												<path id="Layer" class="s0" d="m179.8 112.4l-73.4-51.3c-1.1-0.7-2.4-0.7-3.5 0l-73.7 51.6c-0.8 0.5-1.3 1.4-1.3 2.4v79.3c0 1.6 1.3 3 3 3h51.3c1.7 0 3-1.4 3-3v-69.1h38.9v69.1c0 1.6 1.4 3 3 3h51c1.6 0 3-1.4 3-3v-79.6c-0.1-0.9-0.5-1.8-1.3-2.4z"/>
												<path id="Layer" class="s0" d="m153.1 36.3l23 16c0.5 0.4 1.1 0.6 1.7 0.6q0.7 0 1.4-0.4c1-0.5 1.6-1.5 1.6-2.6v-33.9c0-1.7-1.3-3-3-3h-23c-1.6 0-3 1.3-3 3v17.8c0 1 0.5 1.9 1.3 2.5z"/>
											</g>
										</g>
									</g>
								</g>
							</g>
						</g>
					</g>
				</g>
			</g>
		</g>
	</g>
</svg>